<svg width="50" height="50" viewBox="0 0 50 50" fill="none" xmlns="http://www.w3.org/2000/svg">
<path d="M44.2262 40.9461C46.7926 37.8609 48.5775 34.2035 49.43 30.2833C50.2825 26.3631 50.1774 22.2953 49.1238 18.4242C48.0702 14.5531 46.0989 10.9926 43.3768 8.04367C40.6547 5.09478 37.2618 2.84436 33.4851 1.48277C29.7084 0.121186 25.6591 -0.311509 21.6797 0.221291C17.7003 0.754091 13.9078 2.23671 10.6232 4.54373C7.33849 6.85076 4.65823 9.91431 2.80914 13.4752C0.960039 17.0361 -0.00350713 20.9897 9.59193e-06 25.0014C0.00135908 30.8332 2.05817 36.4783 5.80952 40.9461L5.77378 40.9765C5.89887 41.1264 6.04183 41.255 6.17049 41.4032C6.33132 41.5871 6.50466 41.7603 6.67085 41.9389C7.1712 42.4817 7.68586 43.003 8.22553 43.4923C8.38993 43.6422 8.55969 43.7815 8.72588 43.9244C9.29772 44.4172 9.88564 44.885 10.495 45.3206C10.5736 45.3742 10.6451 45.4438 10.7237 45.4992V45.4778C14.9091 48.4206 19.9019 50 25.0197 50C30.1374 50 35.1303 48.4206 39.3156 45.4778V45.4992C39.3942 45.4438 39.4639 45.3742 39.5443 45.3206C40.1519 44.8832 40.7416 44.4172 41.3134 43.9244C41.4796 43.7815 41.6494 43.6405 41.8138 43.4923C42.3535 43.0012 42.8681 42.4817 43.3685 41.9389C43.5347 41.7603 43.7062 41.5871 43.8688 41.4032C43.9957 41.255 44.1405 41.1264 44.2656 40.9747L44.2262 40.9461ZM25.0179 10.7172C26.6083 10.7172 28.1631 11.1884 29.4855 12.0713C30.8079 12.9542 31.8386 14.209 32.4472 15.6772C33.0559 17.1454 33.2151 18.7609 32.9048 20.3196C32.5945 21.8782 31.8287 23.3098 30.704 24.4335C29.5794 25.5572 28.1466 26.3225 26.5867 26.6325C25.0268 26.9425 23.4099 26.7834 21.9405 26.1753C20.4712 25.5671 19.2153 24.5373 18.3317 23.216C17.448 21.8946 16.9764 20.3412 16.9764 18.752C16.9764 16.6211 17.8236 14.5774 19.3317 13.0705C20.8398 11.5637 22.8852 10.7172 25.0179 10.7172ZM10.7345 40.9461C10.7655 38.6017 11.719 36.3637 13.3888 34.7163C15.0586 33.0689 17.3103 32.1447 19.6569 32.1435H30.3789C32.7254 32.1447 34.9772 33.0689 36.647 34.7163C38.3168 36.3637 39.2703 38.6017 39.3013 40.9461C35.3821 44.4749 30.2935 46.4278 25.0179 46.4278C19.7422 46.4278 14.6536 44.4749 10.7345 40.9461Z" fill="#333333"/>
</svg>
