<svg width="50" height="50" viewBox="0 0 50 50" fill="none" xmlns="http://www.w3.org/2000/svg">
<g clip-path="url(#clip0_437_1131)">
<path d="M25.0001 47.611C25.875 47.5909 26.7146 47.2619 27.3703 46.6824C28.0261 46.1029 28.4558 45.3101 28.5834 44.4443H21.2778C21.409 45.3337 21.8588 46.145 22.5435 46.7275C23.2282 47.31 24.1012 47.624 25.0001 47.611Z" fill="#006CAA"/>
<path d="M45.625 39.0695L45.1527 38.6528C43.8131 37.4592 42.6405 36.0904 41.6666 34.5834C40.6031 32.5036 39.9656 30.2323 39.7916 27.9028V21.0417C39.786 20.2083 39.7117 19.3768 39.5694 18.5556C37.2168 18.0721 35.1036 16.7904 33.5875 14.9275C32.0714 13.0647 31.2456 10.7352 31.25 8.33339V7.45839C29.7999 6.74476 28.2419 6.27549 26.6389 6.0695V4.3195C26.6389 3.82774 26.4435 3.35613 26.0958 3.0084C25.7481 2.66068 25.2764 2.46533 24.7847 2.46533C24.2929 2.46533 23.8213 2.66068 23.4736 3.0084C23.1259 3.35613 22.9305 3.82774 22.9305 4.3195V6.13894C19.3412 6.64527 16.0563 8.43303 13.6822 11.1722C11.3081 13.9113 10.0052 17.4169 10.0139 21.0417V27.9028C9.83991 30.2323 9.20244 32.5036 8.13886 34.5834C7.18175 36.0866 6.02802 37.4552 4.70831 38.6528L4.23608 39.0695V42.9862H45.625V39.0695Z" fill="#006CAA"/>
<path d="M41.6666 15.2778C45.5019 15.2778 48.6111 12.1687 48.6111 8.33336C48.6111 4.49805 45.5019 1.38892 41.6666 1.38892C37.8313 1.38892 34.7222 4.49805 34.7222 8.33336C34.7222 12.1687 37.8313 15.2778 41.6666 15.2778Z" fill="#006CAA"/>
</g>
<defs>
<clipPath id="clip0_437_1131">
<rect width="50" height="50" fill="white"/>
</clipPath>
</defs>
</svg>
